<?xml version="1.0" encoding="UTF-8" standalone="no"?>
<!-- Created with Inkscape (http://www.inkscape.org/) -->

<svg
   xmlns:dc="http://purl.org/dc/elements/1.1/"
   xmlns:cc="http://creativecommons.org/ns#"
   xmlns:rdf="http://www.w3.org/1999/02/22-rdf-syntax-ns#"
   xmlns:svg="http://www.w3.org/2000/svg"
   xmlns="http://www.w3.org/2000/svg"
   xmlns:sodipodi="http://sodipodi.sourceforge.net/DTD/sodipodi-0.dtd"
   xmlns:inkscape="http://www.inkscape.org/namespaces/inkscape"
   width="167.10881mm"
   height="162.58047mm"
   viewBox="0 0 167.1088 162.58047"
   version="1.1"
   id="svg8"
   sodipodi:docname="mapa.svg"
   inkscape:version="0.92.4 (5da689c313, 2019-01-14)">
  <defs
     id="defs2">
    <marker
       inkscape:stockid="Arrow1Lend"
       orient="auto"
       refY="0"
       refX="0"
       id="Arrow1Lend"
       style="overflow:visible"
       inkscape:isstock="true">
      <path
         id="path839"
         d="M 0,0 5,-5 -12.5,0 5,5 Z"
         style="fill:#fff500;fill-opacity:0.50196078;fill-rule:evenodd;stroke:#fff500;stroke-width:1.00000003pt;stroke-opacity:1"
         transform="matrix(-0.8,0,0,-0.8,-10,0)"
         inkscape:connector-curvature="0" />
    </marker>
    <marker
       inkscape:stockid="Arrow1Lstart"
       orient="auto"
       refY="0"
       refX="0"
       id="Arrow1Lstart"
       style="overflow:visible"
       inkscape:isstock="true">
      <path
         id="path836"
         d="M 0,0 5,-5 -12.5,0 5,5 Z"
         style="fill:#fff500;fill-opacity:0.50196078;fill-rule:evenodd;stroke:#9bca00;stroke-width:1.00000003pt;stroke-opacity:1"
         transform="matrix(0.8,0,0,0.8,10,0)"
         inkscape:connector-curvature="0" />
    </marker>
  </defs>
  <sodipodi:namedview
     id="base"
     pagecolor="#ffffff"
     bordercolor="#666666"
     borderopacity="1.0"
     inkscape:pageopacity="0.0"
     inkscape:pageshadow="2"
     inkscape:zoom="1.979899"
     inkscape:cx="399.78081"
     inkscape:cy="370.75109"
     inkscape:document-units="mm"
     inkscape:current-layer="layer1"
     showgrid="false"
     inkscape:window-width="3840"
     inkscape:window-height="2035"
     inkscape:window-x="-13"
     inkscape:window-y="-3"
     inkscape:window-maximized="1"
     fit-margin-top="0"
     fit-margin-left="0"
     fit-margin-right="0"
     fit-margin-bottom="0" />
  <metadata
     id="metadata5">
    <rdf:RDF>
      <cc:Work
         rdf:about="">
        <dc:format>image/svg+xml</dc:format>
        <dc:type
           rdf:resource="http://purl.org/dc/dcmitype/StillImage" />
        <dc:title />
      </cc:Work>
    </rdf:RDF>
  </metadata>
  <g
     inkscape:label="Layer 1"
     inkscape:groupmode="layer"
     id="layer1"
     transform="translate(-41.035545,-40.338799)">
    <rect
       style="fill:#ececec;fill-opacity:1;stroke:none;stroke-width:0.79524118;stroke-linecap:round;stroke-linejoin:round;stroke-miterlimit:4;stroke-dasharray:none;stroke-opacity:1"
       id="rect4547"
       width="167.10881"
       height="162.58047"
       x="41.035545"
       y="40.338799"
       ry="0.85035717"
       inkscape:export-xdpi="280"
       inkscape:export-ydpi="280" />
    <path
       style="fill:none;stroke:#ffffff;stroke-width:1.19491768;stroke-linecap:butt;stroke-linejoin:miter;stroke-miterlimit:4;stroke-dasharray:none;stroke-opacity:1"
       d="m 183.24737,12.487732 c 0,0 -2.49307,48.044468 -1.24653,50.641466 1.24653,2.596998 -14.75075,27.701316 -14.75075,27.701316 0,0 -2.90859,7.141758 -7.687,5.193997 -4.7784,-1.947749 -8.72578,19.910319 -8.72578,19.910319 l -17.03605,37.65648 -19.52913,21.64164 -14.542974,26.83566"
       id="path4529"
       inkscape:connector-curvature="0" />
    <path
       style="fill:none;stroke:#ffffff;stroke-width:1.08271873;stroke-linecap:butt;stroke-linejoin:miter;stroke-miterlimit:4;stroke-dasharray:none;stroke-opacity:1"
       d="m 151.87609,110.09159 -14.54296,-2.16416 c 0,0 -89.958694,-25.753585 -90.789719,-28.999833 -0.831029,-3.246238 -19.529138,-1.298503 -28.047167,9.305919"
       id="path4531"
       inkscape:connector-curvature="0" />
    <path
       style="fill:none;stroke:#ffffff;stroke-width:1.54555333;stroke-linecap:butt;stroke-linejoin:miter;stroke-miterlimit:4;stroke-dasharray:none;stroke-opacity:1"
       d="m 194.59869,82.74133 -13.60994,11.888769 c 0,0 -9.48573,4.877486 -4.94907,16.766251 4.53664,11.88881 12.37266,57.91975 12.37266,57.91975 0,0 1.03106,11.58397 -8.04223,80.78281"
       id="path4535"
       inkscape:connector-curvature="0" />
    <path
       style="fill:none;stroke:#ffffff;stroke-width:1.08271873;stroke-linecap:butt;stroke-linejoin:miter;stroke-miterlimit:4;stroke-dasharray:1.08271875, 1.08271875;stroke-dashoffset:0;stroke-opacity:1"
       d="m 167.25009,90.830514 7.68701,5.626834"
       id="path4537"
       inkscape:connector-curvature="0" />
    <path
       style="fill:none;stroke:#ffffff;stroke-width:1.08271873;stroke-linecap:butt;stroke-linejoin:miter;stroke-miterlimit:4;stroke-dasharray:none;stroke-opacity:1"
       d="m 157.69328,97.106584 -9.76456,-5.843232 c 0,0 6.64821,-2.813424 8.10252,-5.193996 1.45428,-2.380587 -4.77841,-3.462674 -3.53186,-9.738761 1.24653,-6.276064 -67.936483,-65.141364 -67.936483,-65.141364"
       id="path4539"
       inkscape:connector-curvature="0" />
    <path
       style="fill:none;stroke:#ffffff;stroke-width:0.85832107;stroke-linecap:butt;stroke-linejoin:miter;stroke-miterlimit:4;stroke-dasharray:0.85832111, 0.85832111;stroke-dashoffset:0;stroke-opacity:1"
       d="M 110.5325,33.480134 97.859345,50.360623 80.615518,90.614102"
       id="path4541"
       inkscape:connector-curvature="0" />
    <path
       style="fill:none;stroke:#ffffff;stroke-width:0.9705199;stroke-linecap:butt;stroke-linejoin:miter;stroke-miterlimit:4;stroke-dasharray:none;stroke-opacity:1"
       d="M 114.27213,175.23295 91.003357,169.82253 18.704003,134.11382"
       id="path4543"
       inkscape:connector-curvature="0" />
    <path
       style="fill:none;stroke:#ffffff;stroke-width:0.85832107;stroke-linecap:butt;stroke-linejoin:miter;stroke-miterlimit:4;stroke-dasharray:0.85832111, 2.57496332;stroke-dashoffset:0;stroke-opacity:1"
       d="m 45.089112,78.278361 10.180082,-20.77599 c 0,0 -3.32411,-6.276082 1.246541,-14.283492 4.570649,-8.007412 5.401675,-11.037242 5.401675,-11.037242 l -2.077569,-6.276081 c 0,0 2.70084,-1.731331 2.70084,-6.276078 0,-4.544747 8.310269,-8.007412 8.310269,-8.007412"
       id="path4545"
       inkscape:connector-curvature="0" />
    <path
       style="fill:#ffe455;fill-opacity:0.5372549;stroke:#fff500;stroke-width:1.1219883;stroke-linecap:round;stroke-linejoin:round;stroke-miterlimit:4;stroke-dasharray:none;stroke-dashoffset:0;stroke-opacity:1"
       d="m 95.158501,97.106584 30.748009,9.089506 c 0,0 12.25764,4.54475 14.23134,3.78728 1.97367,-0.75746 9.86844,1.2985 9.86844,1.2985 l -1.24655,4.86938 -17.13991,35.60051 -18.17872,21.20881 c 0,0 -11.53051,-0.75744 -23.89205,-5.41039 -12.361526,-4.65297 -28.670433,-14.06708 -28.670433,-14.06708 0,0 28.254921,-40.14526 34.279874,-56.376516 z"
       id="dgreen"
       inkscape:connector-curvature="0" />
    <path
       style="fill:#ffbb55;fill-opacity:0.5387648;stroke:#ff9500;stroke-width:1.122;stroke-linecap:butt;stroke-linejoin:miter;stroke-miterlimit:4;stroke-dasharray:none;stroke-opacity:0.50196078"
       d="m 131.82757,55.121786 c 0,0 -0.49672,11.663682 -19.11362,43.716135 -1.07142,1.844659 5.35855,1.164009 11.93893,3.312239 7.12614,2.32641 10.5054,4.33199 14.13455,3.50489 l 6.64821,-14.499918 c 0,0 9.03742,-4.220128 9.03742,-5.843245 0,-1.623118 -3.94738,-5.410409 -3.94738,-5.410409 0,0 1.14266,-3.787281 0.31163,-4.328325 -0.83102,-0.541043 -19.00974,-20.451367 -19.00974,-20.451367 z"
       id="yellow"
       inkscape:connector-curvature="0"
       sodipodi:nodetypes="cssccsccc" />
    <path
       style="fill:none;stroke:#ffffff;stroke-width:1.42007923;stroke-linecap:butt;stroke-linejoin:miter;stroke-miterlimit:4;stroke-dasharray:none;stroke-opacity:1"
       d="m 99.729156,202.06861 c 0,0 -6.296687,12.29471 -21.416577,14.0587 -15.119888,1.76399 -30.491777,27.4678 -30.491777,27.4678"
       id="path4573"
       inkscape:connector-curvature="0" />
    <path
       style="fill:none;stroke:#ffffff;stroke-width:1.2867384;stroke-linecap:butt;stroke-linejoin:miter;stroke-miterlimit:4;stroke-dasharray:none;stroke-opacity:1"
       d="m 188.41234,169.3161 c 0,0 -35.36253,11.42707 -36.87452,18.98701 -1.51199,7.55994 -16.63188,67.78751 -16.63188,67.78751 0,0 -7.55994,52.16362 -14.36389,64.25953"
       id="path4575"
       inkscape:connector-curvature="0" />
    <path
       style="fill:none;stroke:#ffffff;stroke-width:1.42007923;stroke-linecap:butt;stroke-linejoin:miter;stroke-miterlimit:4;stroke-dasharray:none;stroke-opacity:1"
       d="m 47.820801,243.59511 c 0,0 -12.706134,34.92335 -13.462128,53.82322"
       id="path4577"
       inkscape:connector-curvature="0" />
    <path
       style="fill:none;stroke:#ffffff;stroke-width:1.15339768;stroke-linecap:butt;stroke-linejoin:miter;stroke-miterlimit:4;stroke-dasharray:1.15339764, 1.15339764;stroke-dashoffset:0;stroke-opacity:1"
       d="m 114.27213,175.23295 c 0,0 27.68977,13.57416 37.51769,11.55817"
       id="path4579"
       inkscape:connector-curvature="0" />
    <path
       style="fill:#62bb97;stroke:#2cc788;stroke-width:1.065;stroke-linecap:butt;stroke-linejoin:miter;stroke-opacity:1;stroke-miterlimit:4;stroke-dasharray:none;fill-opacity:0.67085427"
       d="m 175.78405,98.692338 -8.22098,-5.858629 c 0,0 -2.64583,5.858629 -4.44122,5.102677 -1.79538,-0.755952 -4.53571,-2.173362 -6.99256,4.157744 -2.45684,6.3311 -3.40178,14.07961 -3.40178,14.07961 l 23.52902,1.22842 c 0,0 -7.08706,-12.94568 -0.47248,-18.709822 z"
       id="path842"
       inkscape:connector-curvature="0" />
    <path
       style="fill:#28c2fa;stroke:#25c1fa;stroke-width:1.061;stroke-linecap:butt;stroke-linejoin:miter;stroke-opacity:1;stroke-miterlimit:4;stroke-dasharray:none;fill-opacity:0.67085427"
       d="m 152.78778,118.0612 23.80876,1.20271 6.96048,31.67144 c 0,0 -45.27567,4.00904 -47.03205,2.53906 -1.75639,-1.46998 16.26281,-35.41321 16.26281,-35.41321 z"
       id="path844"
       inkscape:connector-curvature="0" />
    <path
       style="fill:#acc418;stroke:#acc418;stroke-width:1.044;stroke-linecap:round;stroke-linejoin:round;stroke-opacity:1;stroke-miterlimit:4;stroke-dasharray:none;fill-opacity:0.63111669"
       d="m 155.22793,97.441763 c 0,0 -8.28207,-4.833769 -8.37444,-5.234018 -0.0924,-0.400249 -0.67734,0.338672 -0.67734,0.338672 l -6.0653,13.762393 10.80671,1.81651 c 0,0 2.62199,-10.584403 4.31037,-10.683557 z"
       id="path848"
       inkscape:connector-curvature="0" />
  </g>
</svg>
